<?xml version="1.0" encoding="utf-8"?>
<!-- Generator: Adobe Illustrator 16.0.0, SVG Export Plug-In . SVG Version: 6.00 Build 0)  -->
<!DOCTYPE svg PUBLIC "-//W3C//DTD SVG 1.1//EN" "http://www.w3.org/Graphics/SVG/1.1/DTD/svg11.dtd">
<svg version="1.1" id="Layer_1" xmlns="http://www.w3.org/2000/svg" xmlns:xlink="http://www.w3.org/1999/xlink" x="0px" y="0px"
	 width="100px" height="100px" viewBox="0 0 100 100" enable-background="new 0 0 100 100" xml:space="preserve">
<g>
	<path fill="#FFFFFF" d="M36.903,45.292c0.865-0.865,2.279-0.865,3.144,0l27.223,27.22c0.864,0.863,0.864,2.277,0,3.143l-1.58,1.582
		c-0.864,0.863-2.278,0.863-3.144,0L35.323,50.015c-0.864-0.865-0.864-2.278,0-3.142L36.903,45.292z"/>
</g>
<g>
	<path fill="#FFFFFF" d="M67.27,21.232c0.863,0.865,0.863,2.279,0,3.143L40.048,51.6c-0.865,0.863-2.279,0.863-3.143,0l-1.582-1.583
		c-0.863-0.865-0.863-2.279,0-3.142l27.223-27.222c0.864-0.863,2.278-0.865,3.144,0L67.27,21.232z"/>
</g>
</svg>
